# xmcd CD database file
#
# Track frame offsets:
#	150
#	18236
#	32431
#	50576
#	67437
#	81423
#	96732
#	117101
#	133734
#	147839
#	162840
#
# Disc length: 2393 seconds
#
# Revision: 1
# Processed by: cddbd v1.5.2PL0 Copyright (c) Steve Scherf et al.
# Submitted via: CDex 1.51
#
DISCID=9e09570b
DTITLE=Adkins, Trace - Icon
DYEAR=2013
DGENRE=Country
TTITLE0=Honky Tonk Badonkadonk
TTITLE1=Rough and Ready
TTITLE2=(This Ain't) No Thinkin' Thing
TTITLE3=You're Gonna Miss This
TTITLE4=More
TTITLE5=Songs About Me
TTITLE6=Then They Do
TTITLE7=I'm Tryin'
TTITLE8=I Left Something Turned on at Home
TTITLE9=Hot Mama
TTITLE10=Ladies Love Country Boys
EXTD=YEAR: 2013
EXTT0=
EXTT1=
EXTT2=
EXTT3=
EXTT4=
EXTT5=
EXTT6=
EXTT7=
EXTT8=
EXTT9=
EXTT10=
PLAYORDER=
